<svg width="100" height="100" xmlns="http://www.w3.org/2000/svg"><g fill="#f84c0b"><path d="M69.82534721 84.61258074H43.63181907a.38614538.38614584 0 0 1-.3089163-.61139758l29.16684755-39.50271944a.38614538.38614584 0 0 0-.3089163-.60496181H61.98659604a9.6471987 9.64721024 0 0 1-7.7615221-15.38147596l18.3933915-24.90640668a.38614538.38614584 0 0 1 .61783261.01930729l26.7019529 40.0433236a.38614538.38614584 0 0 1-.01287152.43763196L70.13426352 84.4581224a.37970962.37971008 0 0 1-.30248055.15445834"/><path d="M30.1682169 15.38950315h26.19352814a.38614538.38614584 0 0 1 .3089163.60496182L27.50381379 55.4971844a.38614538.38614584 0 0 0 .3089163.60496182h10.20067373a9.6471987 9.64721024 0 0 1 7.75508635 15.38147596L27.38153442 96.39002886a.38614538.38614584 0 0 1-.62426836-.0193073L.06174892 56.33383372a.38614538.38614584 0 0 1 .01287152-.43763195l29.78468015-40.35224028a.37970962.37971008 0 0 1 .3089163-.14802257"/></g></svg>